{
    "asset" : {
        "generator" : "Khronos glTF Blender I/O v1.0.5",
        "version" : "2.0"
    },
    "scene" : 0,
    "scenes" : [
        {
            "name" : "Scene",
            "nodes" : [
                0
            ]
        }
    ],
    "nodes" : [
        {
            "mesh" : 0,
            "name" : "Sphere",
            "translation" : [
                0,
                7,
                0
            ]
        }
    ],
    "meshes" : [
        {
            "name" : "Sphere",
            "primitives" : [
                {
                    "attributes" : {
                        "POSITION" : 0,
                        "NORMAL" : 1,
                        "TANGENT" : 2,
                        "TEXCOORD_0" : 3
                    },
                    "indices" : 4
                }
            ]
        }
    ],
    "accessors" : [
        {
            "bufferView" : 0,
            "componentType" : 5126,
            "count" : 40200,
            "max" : [
                1.0000009536743164,
                1,
                1.0000017881393433
            ],
            "min" : [
                -1.0000007152557373,
                -14.010000228881836,
                -1
            ],
            "type" : "VEC3"
        },
        {
            "bufferView" : 1,
            "componentType" : 5126,
            "count" : 40200,
            "type" : "VEC3"
        },
        {
            "bufferView" : 2,
            "componentType" : 5126,
            "count" : 40200,
            "type" : "VEC4"
        },
        {
            "bufferView" : 3,
            "componentType" : 5126,
            "count" : 40200,
            "type" : "VEC2"
        },
        {
            "bufferView" : 4,
            "componentType" : 5123,
            "count" : 60000,
            "type" : "SCALAR"
        }
    ],
    "bufferViews" : [
        {
            "buffer" : 0,
            "byteLength" : 482400,
            "byteOffset" : 0
        },
        {
            "buffer" : 0,
            "byteLength" : 482400,
            "byteOffset" : 482400
        },
        {
            "buffer" : 0,
            "byteLength" : 643200,
            "byteOffset" : 964800
        },
        {
            "buffer" : 0,
            "byteLength" : 321600,
            "byteOffset" : 1608000
        },
        {
            "buffer" : 0,
            "byteLength" : 120000,
            "byteOffset" : 1929600
        }
    ],
    "buffers" : [
        {
            "byteLength" : 2049600,
            "uri" : "data:application/octet-stream;base64,"
        }
    ]
}
